<svg width="210" height="71" viewBox="0 0 210 71" fill="none" xmlns="http://www.w3.org/2000/svg">
<path d="M21.25 48L12.3 13H19.425L25.125 35.375L30.825 13H37.15L42.85 35.375L48.55 13H55.675L46.775 48H38.975L34 28.55L29.05 48H21.25ZM67.1641 48.65C64.8641 48.65 62.7641 48.0583 60.8641 46.875C58.9807 45.6917 57.4724 44.1 56.3391 42.1C55.2224 40.1 54.6641 37.8917 54.6641 35.475C54.6641 33.6583 54.9891 31.9583 55.6391 30.375C56.2891 28.775 57.1807 27.375 58.3141 26.175C59.4641 24.9583 60.7974 24.0083 62.3141 23.325C63.8307 22.6417 65.4474 22.3 67.1641 22.3C69.1474 22.3 70.9557 22.725 72.5891 23.575C74.2391 24.425 75.6307 25.5833 76.7641 27.05C77.9141 28.5167 78.7307 30.175 79.2141 32.025C79.7141 33.875 79.7974 35.8 79.4641 37.8H62.1141C62.3307 38.5333 62.6641 39.2 63.1141 39.8C63.5807 40.3833 64.1474 40.85 64.8141 41.2C65.4974 41.55 66.2807 41.7333 67.1641 41.75C68.0307 41.7667 68.8307 41.5667 69.5641 41.15C70.2974 40.7333 70.9224 40.175 71.4391 39.475L78.4891 41.1C77.4724 43.3167 75.9557 45.1333 73.9391 46.55C71.9224 47.95 69.6641 48.65 67.1641 48.65ZM61.8641 32.7H72.4891C72.2724 31.8667 71.9057 31.1167 71.3891 30.45C70.8724 29.7833 70.2474 29.2583 69.5141 28.875C68.7974 28.4917 68.0141 28.3 67.1641 28.3C66.3307 28.3 65.5474 28.4917 64.8141 28.875C64.0974 29.2583 63.4807 29.7833 62.9641 30.45C62.4641 31.1 62.0974 31.85 61.8641 32.7ZM96.6195 22.3C99.0529 22.3 101.261 22.8917 103.245 24.075C105.245 25.2583 106.836 26.85 108.02 28.85C109.203 30.8333 109.795 33.0333 109.795 35.45C109.795 37.2667 109.453 38.975 108.77 40.575C108.086 42.175 107.136 43.5833 105.92 44.8C104.72 46 103.32 46.9417 101.72 47.625C100.136 48.3083 98.4362 48.65 96.6195 48.65C95.1862 48.65 93.9112 48.3333 92.7945 47.7C91.6779 47.0667 90.7195 46.2667 89.9195 45.3V48H83.0195V10.5H89.9195V25.65C90.7195 24.6667 91.6779 23.8667 92.7945 23.25C93.9112 22.6167 95.1862 22.3 96.6195 22.3ZM96.5195 41.975C97.6695 41.975 98.7112 41.6833 99.6445 41.1C100.595 40.5167 101.345 39.7333 101.895 38.75C102.445 37.75 102.72 36.65 102.72 35.45C102.72 34.25 102.436 33.1583 101.87 32.175C101.32 31.1917 100.57 30.4083 99.6195 29.825C98.6862 29.225 97.6529 28.925 96.5195 28.925C95.3862 28.925 94.3612 29.225 93.4445 29.825C92.5445 30.4083 91.8279 31.2 91.2945 32.2C90.7779 33.1833 90.5195 34.2667 90.5195 35.45C90.5195 36.6667 90.7779 37.7667 91.2945 38.75C91.8279 39.7333 92.5445 40.5167 93.4445 41.1C94.3612 41.6833 95.3862 41.975 96.5195 41.975ZM113.195 48V13H127.095C128.995 13 130.712 13.4833 132.245 14.45C133.795 15.4 135.02 16.6833 135.92 18.3C136.837 19.9 137.295 21.675 137.295 23.625C137.295 25.1583 137.029 26.5833 136.495 27.9C135.962 29.2 135.212 30.3417 134.245 31.325C133.279 32.3083 132.154 33.075 130.87 33.625L139.195 48H131.245L123.27 34.25H120.095V48H113.195ZM120.095 27.35H126.27C127.02 27.35 127.704 27.1667 128.32 26.8C128.954 26.4167 129.454 25.9083 129.82 25.275C130.204 24.625 130.395 23.9083 130.395 23.125C130.395 22.3583 130.204 21.6583 129.82 21.025C129.454 20.375 128.954 19.8583 128.32 19.475C127.704 19.0917 127.02 18.9 126.27 18.9H120.095V27.35ZM152.76 48.65C150.46 48.65 148.36 48.0583 146.46 46.875C144.576 45.6917 143.068 44.1 141.935 42.1C140.818 40.1 140.26 37.8917 140.26 35.475C140.26 33.6583 140.585 31.9583 141.235 30.375C141.885 28.775 142.776 27.375 143.91 26.175C145.06 24.9583 146.393 24.0083 147.91 23.325C149.426 22.6417 151.043 22.3 152.76 22.3C154.743 22.3 156.551 22.725 158.185 23.575C159.835 24.425 161.226 25.5833 162.36 27.05C163.51 28.5167 164.326 30.175 164.81 32.025C165.31 33.875 165.393 35.8 165.06 37.8H147.71C147.926 38.5333 148.26 39.2 148.71 39.8C149.176 40.3833 149.743 40.85 150.41 41.2C151.093 41.55 151.876 41.7333 152.76 41.75C153.626 41.7667 154.426 41.5667 155.16 41.15C155.893 40.7333 156.518 40.175 157.035 39.475L164.085 41.1C163.068 43.3167 161.551 45.1333 159.535 46.55C157.518 47.95 155.26 48.65 152.76 48.65ZM147.46 32.7H158.085C157.868 31.8667 157.501 31.1167 156.985 30.45C156.468 29.7833 155.843 29.2583 155.11 28.875C154.393 28.4917 153.61 28.3 152.76 28.3C151.926 28.3 151.143 28.4917 150.41 28.875C149.693 29.2583 149.076 29.7833 148.56 30.45C148.06 31.1 147.693 31.85 147.46 32.7ZM187.4 23H194.3V48.35C194.3 50.2 193.925 51.8667 193.175 53.35C192.425 54.85 191.4 56.1333 190.1 57.2C188.817 58.2667 187.333 59.0833 185.65 59.65C183.983 60.2167 182.217 60.5 180.35 60.5C178.583 60.5 176.892 60.15 175.275 59.45C173.658 58.7667 172.225 57.8167 170.975 56.6C169.725 55.3833 168.75 53.9833 168.05 52.4L174.35 49.525C174.7 50.3583 175.175 51.075 175.775 51.675C176.392 52.275 177.092 52.7333 177.875 53.05C178.675 53.3833 179.5 53.55 180.35 53.55C181.267 53.55 182.142 53.4417 182.975 53.225C183.825 53.0083 184.583 52.6833 185.25 52.25C185.917 51.8167 186.442 51.275 186.825 50.625C187.208 49.975 187.4 49.2167 187.4 48.35V45.45C186.633 46.4 185.7 47.175 184.6 47.775C183.517 48.3583 182.258 48.65 180.825 48.65C179.025 48.65 177.333 48.3083 175.75 47.625C174.183 46.9417 172.8 46 171.6 44.8C170.4 43.5833 169.458 42.1833 168.775 40.6C168.092 39.0167 167.75 37.3167 167.75 35.5C167.75 33.6833 168.092 31.9833 168.775 30.4C169.458 28.8167 170.4 27.425 171.6 26.225C172.8 25.0083 174.183 24.0583 175.75 23.375C177.333 22.6917 179.025 22.35 180.825 22.35C182.258 22.35 183.517 22.65 184.6 23.25C185.7 23.8333 186.633 24.6 187.4 25.55V23ZM180.925 42.025C182.058 42.025 183.083 41.7333 184 41.15C184.917 40.55 185.633 39.7583 186.15 38.775C186.683 37.7917 186.95 36.7 186.95 35.5C186.95 34.3 186.683 33.2083 186.15 32.225C185.633 31.225 184.917 30.4333 184 29.85C183.083 29.2667 182.058 28.975 180.925 28.975C179.808 28.975 178.783 29.2667 177.85 29.85C176.933 30.4333 176.2 31.225 175.65 32.225C175.1 33.2083 174.825 34.3 174.825 35.5C174.825 36.7 175.1 37.8 175.65 38.8C176.2 39.7833 176.933 40.5667 177.85 41.15C178.783 41.7333 179.808 42.025 180.925 42.025Z" fill="#FFC72C"/>
<path d="M1 50.056C41.5132 39.0875 64.2274 36.9235 104.741 50.056C148.828 64.133 170.612 59.775 209 50.056C170.655 60.2556 153.908 78.4439 104.741 60.2394C62.4222 43.6772 40.5848 47.5599 1 50.056Z" fill="#021631" stroke="#031732"/>
<path d="M1 52.056C41.5132 41.0875 64.2274 38.9235 104.741 52.056C148.828 66.133 170.612 61.775 209 52.056C170.655 62.2556 153.908 80.4439 104.741 62.2394C62.4222 45.6772 40.5848 49.5599 1 52.056Z" fill="#FFC72C" stroke="#FFC72C"/>
</svg>
